<svg xmlns='http://www.w3.org/2000/svg' style='display: none;'>
    
    <symbol id='icon-menu' viewBox='0 0 200 200'>
        <path d='M25,50 h150 M25,100 h150 M25,150 h150' stroke='currentColor' stroke-width='12' stroke-linecap='round'/>
    </symbol>

    <symbol id="icon-menu-grid" viewBox="0 0 200 200">
        <rect x="40" y="40" width="50" height="50" rx="8" stroke="currentColor" stroke-width="10" fill="none" />
        <rect x="110" y="40" width="50" height="50" rx="8" stroke="currentColor" stroke-width="10" fill="none" />
        <rect x="40" y="110" width="50" height="50" rx="8" stroke="currentColor" stroke-width="10" fill="none" />
        <rect x="110" y="110" width="50" height="50" rx="8" stroke="currentColor" stroke-width="10" fill="none" />
    </symbol>

    <symbol id="icon-help" viewBox="0 0 200 200">
        <path d="M75,83.3 C75,78.4 76.5,73.6 79.2,69.5 C81.9,65.3 85.8,62.1 90.4,60.2 C95,58.3 100,57.8 104.9,58.8 C109.8,59.8 114.2,62.2 117.7,65.7 C121.2,69.2 123.6,73.6 124.6,78.5 C125.6,83.4 125.1,88.4 123.2,93 C121.3,97.6 118.1,101.5 114,104.2 C109.9,106.9 105.1,108.4 100,108.4 V116.7 M175,100 C175,141.4 141.4,175 100,175 C58.6,175 25,141.4 25,100 C25,58.6 58.6,25 100,25 C141.4,25 175,58.6 175,100 Z" 
              stroke="currentColor" stroke-width="10" stroke-linecap="round" stroke-linejoin="round" fill="none" />
        <circle cx="100" cy="141.7" r="8.3" fill="currentColor" />
    </symbol>

    <symbol id="icon-home" viewBox="0 0 200 200">
        <path d="M158,75 V142 C158,158 158,165 153,170 C148,175 141,175 125,175 H117 H83 H75 C59,175 52,175 47,170 C42,165 42,158 42,142 V75" 
              stroke="currentColor" stroke-width="10" stroke-linejoin="round" fill="none" />
        <path d="M25,92 L62.5,58 L89,35 C95,30 105,30 111,35 L137.5,58 L175,92" 
              stroke="currentColor" stroke-width="10" stroke-linecap="round" stroke-linejoin="round" fill="none" />
        <path d="M83,175 V142 C83,133 91,125 100,125 V125 C109,125 117,133 117,142 V175" 
              stroke="currentColor" stroke-width="10" stroke-linecap="round" stroke-linejoin="round" fill="none" />
    </symbol>

    <symbol id="icon-settings" viewBox="0 0 200 200">
        <circle cx="100" cy="100" r="25" stroke="currentColor" stroke-width="10" fill="none" />
        <path d="M114.7 17.9C111.6 16.7 107.8 16.7 100 16.7C92.2 16.7 88.4 16.7 85.3 17.9C81.2 19.6 78 22.9 76.3 26.9C75.5 28.8 75.2 31 75.1 34.1C74.9 38.8 72.5 43.1 68.5 45.4C64.5 47.7 59.5 47.7 55.4 45.5C52.6 44 50.6 43.2 48.6 42.9C44.2 42.3 39.8 43.5 36.3 46.2C33.7 48.2 31.7 51.6 27.8 58.3C23.9 65 22 68.4 21.6 71.7C21 76.1 22.2 80.5 24.9 84C26.1 85.6 27.8 87 30.5 88.7C34.4 91.1 37 95.3 37 100C37 104.7 34.4 108.9 30.5 111.3C27.8 113 26.1 114.4 24.9 116C22.2 119.5 21 123.9 21.6 128.3C22 131.6 23.9 135 27.8 141.7C31.7 148.4 33.7 151.8 36.3 153.8C39.8 156.5 44.2 157.7 48.6 157.1C50.6 156.8 52.6 156 55.4 154.5C59.5 152.3 64.5 152.2 68.5 154.6C72.5 156.9 74.9 161.2 75.1 165.8C75.2 169 75.5 171.2 76.3 173C78 177.1 81.2 180.4 85.3 182.1C88.4 183.3 92.2 183.3 100 183.3C107.8 183.3 111.6 183.3 114.7 182.1C118.8 180.4 122 177.1 123.7 173C124.5 171.2 124.8 169 124.9 165.8C125.1 161.2 127.5 156.9 131.5 154.6C135.5 152.2 140.5 152.3 144.6 154.5C147.4 156 149.4 156.8 151.4 157.1C155.8 157.7 160.2 156.5 163.7 153.8C166.3 151.8 168.3 148.4 172.2 141.7C176.1 135 178 131.6 178.4 128.3C179 123.9 177.8 119.5 175.1 116C173.9 114.4 172.2 113 169.5 111.3C165.6 108.9 163 104.7 163 100C163 95.3 165.6 91.1 169.5 88.7C172.2 87 173.9 85.6 175.1 84C177.8 80.5 179 76.1 178.4 71.7C178 68.4 176.1 65 172.2 58.3C168.3 51.6 166.3 48.2 163.7 46.2C160.2 43.5 155.8 42.3 151.4 42.9C149.4 43.2 147.4 44 144.6 45.5C140.5 47.7 135.5 47.7 131.5 45.4C127.5 43.1 125.1 38.8 124.9 34.1C124.8 31 124.5 28.8 123.7 26.9C122 22.9 118.8 19.6 114.7 17.9Z" 
              stroke="currentColor" stroke-width="10" fill="none" />
    </symbol>

    <symbol id="icon-info" viewBox="0 0 200 200">
        <path d="M91.7,91.7 H100 V137.5 M100,137.5 H115 M100,137.5 H85" 
              stroke="currentColor" stroke-width="12" stroke-linecap="round" stroke-linejoin="round" fill="none" />
        
        <circle cx="100" cy="100" r="80" stroke="currentColor" stroke-width="10" fill="none" />
        
        <circle cx="98" cy="67" r="10" fill="currentColor" />
    </symbol>

    <symbol id="icon-play" viewBox="0 0 200 200">
        <circle cx="100" cy="100" r="80" stroke="currentColor" stroke-width="10" fill="none" />
        
        <path d="M85,70 V130 L135,100 Z" 
              stroke="currentColor" stroke-width="10" stroke-linejoin="round" fill="none" />
    </symbol>

    <symbol id="icon-kofi" viewBox="0 0 200 200">
        <circle cx="100" cy="100" r="83" stroke="currentColor" stroke-width="10" fill="none" />
        
        <path d="M135.5,70 H129 H63.5 C60.6,70 58.3,72.3 58.3,75.2 V123.7 C58.3,129.5 63,134.2 68.8,134.2 H118.5 C124.3,134.2 129,129.5 129,123.7 V116.9 H135.5 C148.1,116.9 158.3,106.7 158.3,94.1 V92.8 C158.3,80.2 148.1,70 135.5,70 Z M129,104.7 V82.1 H134.9 C141.2,82.1 146.2,87.2 146.2,93.4 C146.2,99.6 141.2,104.7 134.9,104.7 H129 Z" 
              fill="currentColor" />
        
        <path d="M103.8,84.3 C97.7,84.3 93.8,86.7 92.2,91.4 C90.6,86.7 86.7,84.3 80.7,84.3 C71.5,84.3 68.2,95.6 72.9,103 C76.1,108 82.5,114.2 92.2,121.8 C101.9,114.2 108.3,108 111.5,103 C116.3,95.6 112.9,84.3 103.8,84.3 Z" 
              fill="white" />
    </symbol>

    <symbol id="icon-stats" viewBox="0 0 200 200">
        <circle cx="100" cy="100" r="80" 
                stroke="currentColor" stroke-width="10" fill="none" />
        
        <path d="M70,135 V105" stroke="currentColor" stroke-width="12" stroke-linecap="round" />
        <path d="M100,135 V75" stroke="currentColor" stroke-width="12" stroke-linecap="round" />
        <path d="M130,135 V95" stroke="currentColor" stroke-width="12" stroke-linecap="round" />
    </symbol>

<symbol id="icon-email" viewBox="0 0 200 200">
    <circle cx="100" cy="100" r="85" 
            stroke="currentColor" stroke-width="10" fill="none" />
    
    <g transform="translate(48, 50) scale(3.3)">
        <path d="M25.12,6H6.88A3.89,3.89,0,0,0,3,9.89V21.11A3.89,3.89,0,0,0,6.88,25H25.12A3.89,3.89,0,0,0,29,21.11V9.89A3.89,3.89,0,0,0,25.12,6Zm0,2,.16,0L16,14.76,6.72,8l.16,0ZM27,21.11A1.89,1.89,0,0,1,25.12,23H6.88A1.89,1.89,0,0,1,5,21.11V9.89a1.92,1.92,0,0,1,.1-.59l10.32,7.51a1,1,0,0,0,1.18,0L26.91,9.3a1.92,1.92,0,0,1,.1.59Z" 
              fill="currentColor" 
              stroke="currentColor" 
              stroke-width="1.2" 
              stroke-linejoin="round" 
              fill-rule="evenodd" />
    </g>
</symbol>

</svg>