<svg xmlns = 'http://www.w3.org/2000/svg' style = 'display: none;'>

    <symbol id = 'suit-spades' viewBox='0 0 512 512'>
        <path d="M458.915 307.705c0 62.63-54 91.32-91.34 91.34-41.64 0-73.1-18.86-91.83-34.26 2.47 50.95 14.53 87.35 68.65 116h-176.79c54.12-28.65 66.18-65.05 68.65-116-18.73 15.39-50.2 34.28-91.83 34.26-37.29 0-91.34-28.71-91.34-91.34 0-114.47 80.64-83.32 202.91-276.49 122.28 193.17 202.92 162.03 202.92 276.49z" />
    </symbol>

    <symbol id = 'suit-diamonds' viewBox='0 0 512 512'>
        <path d="M431.684,252.936c-40.578-32.779-150.62-185.32-171.561-247.398C258.899,1.913,257.845,0,255.988,0 c-1.832,0-2.894,1.913-4.11,5.538C230.92,67.616,120.894,220.157,80.308,252.936c-1.053,0.843-1.946,2.44-1.946,3.064 c0,0.624,0.893,2.222,1.946,3.057c40.586,32.778,150.612,185.319,171.57,247.406c1.216,3.624,2.278,5.537,4.11,5.537 c1.857,0,2.911-1.913,4.135-5.537c20.941-62.087,130.983-214.628,171.561-247.406c1.046-0.835,1.954-2.432,1.954-3.057 C433.638,255.376,432.73,253.778,431.684,252.936z" />
    </symbol>

    <symbol id='suit-hearts' viewBox='4 4 25 25'>
        <path d="M27.267 11.489c0.21 6.687-10.266 11.384-11.25 15.056-1.075-4.011-11.060-8.078-11.283-15.056-0.214-6.701 8.047-8.155 11.283-2.55 3.316-5.743 11.043-4.039 11.25 2.55z"></path>
    </symbol>

    <symbol id='suit-clubs' viewBox='0 0 512 512'>
        <path d="M477.443 295.143a104.45 104.45 0 0 1-202.26 36.67c-.08 68.73 4.33 114.46 69.55 149h-177.57c65.22-34.53 69.63-80.25 69.55-149a104.41 104.41 0 1 1-66.34-136.28 104.45 104.45 0 1 1 171.14 0 104.5 104.5 0 0 1 135.93 99.61z" />
    </symbol>

</svg>